<svg width="39" height="16" viewBox="0 0 39 16" fill="none" xmlns="http://www.w3.org/2000/svg">
<path d="M1.55481 7C1.00252 7 0.55481 7.44772 0.55481 8C0.55481 8.55228 1.00252 9 1.55481 9V7ZM37.7911 8.70711C38.1816 8.31658 38.1816 7.68342 37.7911 7.29289L31.4272 0.928932C31.0366 0.538408 30.4035 0.538408 30.0129 0.928932C29.6224 1.31946 29.6224 1.95262 30.0129 2.34315L35.6698 8L30.0129 13.6569C29.6224 14.0474 29.6224 14.6805 30.0129 15.0711C30.4035 15.4616 31.0366 15.4616 31.4272 15.0711L37.7911 8.70711ZM1.55481 9H37.084V7H1.55481V9Z" fill="black"/>
</svg>
