<svg width="29" height="27" viewBox="0 0 29 27" fill="none" xmlns="http://www.w3.org/2000/svg">
<path d="M1.35913 10.5254H27.6409V8.69716H1.35913V10.5254ZM27.0667 9.98244V10.7851H29V9.98244H27.0667ZM23.9463 25.1517H5.05373V26.98H23.9463V25.1517ZM1.93333 10.7851V9.98244H0V10.7851H1.93333ZM5.59893 25.4698C3.18826 20.9104 1.93327 15.8827 1.93333 10.7851H0C0 16.1675 1.32433 21.475 3.87053 26.2889L5.59893 25.4698ZM5.05373 25.1517C5.28573 25.1517 5.49647 25.2761 5.59893 25.4698L3.87053 26.2889C3.9806 26.4965 4.14954 26.6711 4.35849 26.7932C4.56743 26.9152 4.80815 26.9799 5.05373 26.98V25.1517ZM23.4011 25.4698C23.4517 25.3742 23.5296 25.2937 23.6259 25.2375C23.7222 25.1813 23.8331 25.1516 23.9463 25.1517V26.98C24.4489 26.98 24.9052 26.7131 25.1295 26.2889L23.4011 25.4698ZM27.0667 10.7851C27.0667 15.8823 25.81 20.9101 23.4011 25.4698L25.1295 26.2889C27.6749 21.4752 29 16.1671 29 10.7851H27.0667ZM27.6409 10.5254C27.4886 10.5254 27.3425 10.4682 27.2348 10.3664C27.1272 10.2646 27.0667 10.1265 27.0667 9.98244H29C29 9.64156 28.8568 9.31464 28.6019 9.07361C28.347 8.83257 28.0013 8.69716 27.6409 8.69716V10.5254ZM1.35913 8.69716C0.998669 8.69716 0.652968 8.83257 0.398081 9.07361C0.143194 9.31464 0 9.64156 0 9.98244H1.93333C1.93333 10.1265 1.87284 10.2646 1.76515 10.3664C1.65747 10.4682 1.51142 10.5254 1.35913 10.5254V8.69716ZM7.59607 10.0812L13.3961 0.939739L11.7353 0L5.93533 9.14143L7.59607 10.0812ZM15.6039 0.939739L21.4039 10.0812L23.0627 9.14143L17.2627 0L15.6039 0.939739Z" fill="black"/>
</svg>
