<svg width="28" height="28" viewBox="0 0 28 28" fill="none" xmlns="http://www.w3.org/2000/svg">
<path d="M19.0575 6.86284C18.598 6.86284 18.1573 7.04714 17.8324 7.3752C17.5075 7.70325 17.325 8.14819 17.325 8.61213C17.325 9.07607 17.5075 9.52101 17.8324 9.84906C18.1573 10.1771 18.598 10.3614 19.0575 10.3614C19.517 10.3614 19.9577 10.1771 20.2826 9.84906C20.6075 9.52101 20.79 9.07607 20.79 8.61213C20.79 8.14819 20.6075 7.70325 20.2826 7.3752C19.9577 7.04714 19.517 6.86284 19.0575 6.86284ZM14.1545 6.86284C14.5125 5.83858 15.1762 4.95163 16.0544 4.32426C16.9325 3.69689 17.9818 3.35999 19.0575 3.35999C20.1332 3.35999 21.1825 3.69689 22.0606 4.32426C22.9388 4.95163 23.6025 5.83858 23.9605 6.86284H25.9875C26.447 6.86284 26.8877 7.04714 27.2126 7.3752C27.5375 7.70325 27.72 8.14819 27.72 8.61213C27.72 9.07607 27.5375 9.52101 27.2126 9.84906C26.8877 10.1771 26.447 10.3614 25.9875 10.3614H23.9605C23.6025 11.3857 22.9388 12.2726 22.0606 12.9C21.1825 13.5274 20.1332 13.8643 19.0575 13.8643C17.9818 13.8643 16.9325 13.5274 16.0544 12.9C15.1762 12.2726 14.5125 11.3857 14.1545 10.3614H1.7325C1.27301 10.3614 0.832345 10.1771 0.507438 9.84906C0.182531 9.52101 0 9.07607 0 8.61213C0 8.14819 0.182531 7.70325 0.507438 7.3752C0.832345 7.04714 1.27301 6.86284 1.7325 6.86284H14.1545ZM8.6625 17.3586C8.20301 17.3586 7.76234 17.5429 7.43744 17.8709C7.11253 18.199 6.93 18.6439 6.93 19.1078C6.93 19.5718 7.11253 20.0167 7.43744 20.3448C7.76234 20.6728 8.20301 20.8571 8.6625 20.8571C9.12199 20.8571 9.56266 20.6728 9.88756 20.3448C10.2125 20.0167 10.395 19.5718 10.395 19.1078C10.395 18.6439 10.2125 18.199 9.88756 17.8709C9.56266 17.5429 9.12199 17.3586 8.6625 17.3586ZM3.75953 17.3586C4.11746 16.3343 4.78125 15.4473 5.65938 14.82C6.53752 14.1926 7.58677 13.8557 8.6625 13.8557C9.73823 13.8557 10.7875 14.1926 11.6656 14.82C12.5438 15.4473 13.2075 16.3343 13.5655 17.3586H25.9875C26.447 17.3586 26.8877 17.5429 27.2126 17.8709C27.5375 18.199 27.72 18.6439 27.72 19.1078C27.72 19.5718 27.5375 20.0167 27.2126 20.3448C26.8877 20.6728 26.447 20.8571 25.9875 20.8571H13.5655C13.2075 21.8814 12.5438 22.7683 11.6656 23.3957C10.7875 24.0231 9.73823 24.36 8.6625 24.36C7.58677 24.36 6.53752 24.0231 5.65938 23.3957C4.78125 22.7683 4.11746 21.8814 3.75953 20.8571H1.7325C1.27301 20.8571 0.832345 20.6728 0.507438 20.3448C0.182531 20.0167 0 19.5718 0 19.1078C0 18.6439 0.182531 18.199 0.507438 17.8709C0.832345 17.5429 1.27301 17.3586 1.7325 17.3586H3.75953Z" fill="#838383"/>
</svg>
