<svg width="54" height="54" viewBox="0 0 54 54" fill="none" xmlns="http://www.w3.org/2000/svg">
<path d="M29.925 38.8688C29.475 38.4188 29.259 37.875 29.277 37.2375C29.295 36.6 29.5298 36.0563 29.9813 35.6063L36.3375 29.25H11.25C10.6125 29.25 10.0778 29.034 9.64576 28.602C9.21376 28.17 8.99851 27.636 9.00001 27C9.00001 26.3625 9.21601 25.8278 9.64801 25.3958C10.08 24.9638 10.614 24.7485 11.25 24.75H36.3375L29.925 18.3375C29.475 17.8875 29.25 17.3528 29.25 16.7333C29.25 16.1138 29.475 15.5798 29.925 15.1313C30.375 14.6813 30.9098 14.4563 31.5293 14.4563C32.1488 14.4563 32.6828 14.6813 33.1313 15.1313L43.425 25.425C43.65 25.65 43.8098 25.8938 43.9043 26.1563C43.9988 26.4188 44.0453 26.7 44.0438 27C44.0438 27.3 43.9965 27.5813 43.902 27.8438C43.8075 28.1063 43.6485 28.35 43.425 28.575L33.075 38.925C32.6625 39.3375 32.1473 39.5438 31.5293 39.5438C30.9113 39.5438 30.3765 39.3188 29.925 38.8688Z" fill="#A3A3A3"/>
</svg>
