<svg width="55" height="55" viewBox="0 0 55 55" fill="none" xmlns="http://www.w3.org/2000/svg">
<path d="M43.3125 46.5208L30.4792 33.6875C29.3333 34.6042 28.0156 35.3299 26.526 35.8646C25.0365 36.3993 23.4514 36.6667 21.7708 36.6667C17.6076 36.6667 14.0846 35.2244 11.2017 32.34C8.31875 29.4556 6.87653 25.9325 6.875 21.7708C6.875 17.6076 8.31722 14.0846 11.2017 11.2017C14.0861 8.31875 17.6092 6.87653 21.7708 6.875C25.934 6.875 29.4571 8.31722 32.34 11.2017C35.2229 14.0861 36.6651 17.6092 36.6667 21.7708C36.6667 23.4514 36.3993 25.0365 35.8646 26.526C35.3299 28.0156 34.6042 29.3333 33.6875 30.4792L46.5781 43.3698C46.9983 43.7899 47.2083 44.3056 47.2083 44.9167C47.2083 45.5278 46.9792 46.0625 46.5208 46.5208C46.1007 46.941 45.566 47.151 44.9167 47.151C44.2674 47.151 43.7326 46.941 43.3125 46.5208ZM21.7708 32.0833C24.6354 32.0833 27.0707 31.0803 29.0767 29.0744C31.0826 27.0684 32.0849 24.6339 32.0833 21.7708C32.0833 18.9062 31.0803 16.471 29.0744 14.465C27.0684 12.459 24.6339 11.4568 21.7708 11.4583C18.9062 11.4583 16.471 12.4613 14.465 14.4673C12.459 16.4733 11.4568 18.9078 11.4583 21.7708C11.4583 24.6354 12.4613 27.0707 14.4673 29.0767C16.4733 31.0826 18.9078 32.0849 21.7708 32.0833Z" fill="black"/>
</svg>
