<?xml version="1.0" encoding="utf-8"?>
<!-- Generator: Adobe Illustrator 28.4.1, SVG Export Plug-In . SVG Version: 6.00 Build 0)  -->
<svg version="1.1" id="Слой_1" xmlns="http://www.w3.org/2000/svg" xmlns:xlink="http://www.w3.org/1999/xlink" x="0px" y="0px"
	 viewBox="0 0 30 31.4" style="enable-background:new 0 0 30 31.4;" xml:space="preserve">
<style type="text/css">
	.st0{clip-path:url(#SVGID_00000177457422209981655480000005242118161024269696_);}
	.st1{fill:#FFEA7C;}
</style>
<g>
	<defs>
		<rect id="SVGID_1_" y="0" width="30" height="31.4"/>
	</defs>
	<clipPath id="SVGID_00000010292458973422405180000011908154683384138130_">
		<use xlink:href="#SVGID_1_"  style="overflow:visible;"/>
	</clipPath>
	<g style="clip-path:url(#SVGID_00000010292458973422405180000011908154683384138130_);">
		<path class="st1" d="M11.9,0l0.9,0h4.5l0.9,0l1.1,0l0.5,0l0.5,0l0.5,0l0.5,0l0.5,0l0.5,0l0.4,0l0.4,0c2.2,0.3,3.7,0.8,4.8,2
			c1.1,1.2,1.6,2.7,1.9,5l0,0.4l0,0.5l0,0.5l0,0.5l0,0.8l0,0.5l0,0.8l0,1.2l0,1.3l0,4.3l0,1l0,1.2l0,0.6l0,0.5l0,0.5l0,0.5l0,0.5
			l0,0.5l0,0.5l0,0.4c-0.2,2.3-0.8,3.8-1.9,5c-1.1,1.2-2.6,1.7-4.8,2l-0.4,0l-0.4,0l-0.5,0l-0.5,0l-0.7,0l-0.5,0l-0.8,0l-1.1,0
			l-1.2,0l-4.1,0l-0.9,0l-1.1,0l-0.5,0l-0.5,0l-0.5,0l-0.5,0l-0.5,0l-0.4,0l-0.4,0l-0.4,0c-2.2-0.3-3.7-0.8-4.8-2
			c-1.1-1.2-1.7-2.7-1.9-5l0-0.4l0-0.5l0-0.5l0-0.5l0-0.8L0,21l0-0.8L0,19l0-1.3l0-4.3l0-1l0-1.2l0-0.6l0-0.5l0-0.5l0-0.5l0-0.5
			l0-0.5l0-0.5l0-0.4C0.5,5,1,3.4,2.1,2.2s2.6-1.7,4.8-2l0.4,0l0.4,0l0.5,0l0.5,0l0.7,0l0.5,0l0.8,0L11.9,0z M8.5,9.6H5.1
			C5.2,17.7,9.1,22.6,16,22.6h0.4V18c2.5,0.3,4.4,2.2,5.2,4.7h3.5c-1-3.7-3.5-5.8-5.1-6.6c1.6-1,3.9-3.3,4.4-6.5h-3.2
			c-0.7,2.6-2.8,5-4.8,5.2V9.6h-3.2v9.1C11.1,18.1,8.6,15.6,8.5,9.6z"/>
	</g>
</g>
</svg>
