<?xml version="1.0" encoding="utf-8"?>
<!-- Generator: Adobe Illustrator 28.4.1, SVG Export Plug-In . SVG Version: 6.00 Build 0)  -->
<svg version="1.1" id="Слой_1" xmlns="http://www.w3.org/2000/svg" xmlns:xlink="http://www.w3.org/1999/xlink" x="0px" y="0px"
	 viewBox="0 0 53 55" style="enable-background:new 0 0 53 55;" xml:space="preserve">
<style type="text/css">
	.st0{fill:#FFEA7C;}
</style>
<path class="st0" d="M26.5,0C11.9,0,0,12.3,0,27.5S11.9,55,26.5,55S53,42.7,53,27.5S41.1,0,26.5,0z M38.8,18.7
	c-0.4,4.3-2.1,14.9-3,19.8c-0.4,2.1-1.1,2.8-1.8,2.8c-1.5,0.1-2.7-1-4.2-2.1c-2.3-1.6-3.7-2.6-5.9-4.1c-2.6-1.8-0.9-2.8,0.6-4.4
	c0.4-0.4,7.2-6.8,7.3-7.4c0-0.1,0-0.2,0-0.3c0-0.1-0.1-0.2-0.1-0.2c-0.2-0.1-0.4-0.1-0.6-0.1c-0.2,0.1-3.9,2.6-11.2,7.7
	c-1.1,0.7-2,1.1-2.9,1.1c-1,0-2.8-0.5-4.1-1c-1.7-0.5-3-0.9-2.9-1.8c0.1-0.5,0.7-1,2-1.5c7.7-3.5,12.9-5.8,15.4-6.9
	c7.4-3.2,8.9-3.7,9.9-3.7c0.2,0,0.7,0.1,1,0.3c0.3,0.2,0.3,0.5,0.4,0.7C38.8,17.8,38.8,18.3,38.8,18.7z"/>
</svg>
