<?xml version="1.0" encoding="utf-8"?>
<!-- Generator: Adobe Illustrator 28.4.1, SVG Export Plug-In . SVG Version: 6.00 Build 0)  -->
<svg version="1.1" id="Слой_1" xmlns="http://www.w3.org/2000/svg" xmlns:xlink="http://www.w3.org/1999/xlink" x="0px" y="0px"
	 viewBox="0 0 55 58" style="enable-background:new 0 0 55 58;" xml:space="preserve">
<style type="text/css">
	.st0{fill:#FFEA7C;}
	.st1{fill-rule:evenodd;clip-rule:evenodd;fill:#FFEA7C;}
</style>
<path class="st0" d="M27.5,18.8c-2.6,0-5,1.1-6.9,3c-1.8,1.9-2.8,4.5-2.8,7.2c0,2.7,1,5.3,2.8,7.2c1.8,1.9,4.3,3,6.9,3s5-1.1,6.9-3
	c1.8-1.9,2.8-4.5,2.8-7.2c0-2.7-1-5.3-2.8-7.2C32.5,19.8,30.1,18.8,27.5,18.8z"/>
<path class="st1" d="M11.9,0.9c10.4-1.2,20.9-1.2,31.2,0C48.8,1.6,53.4,6.3,54,12.3c1.2,11.1,1.2,22.3,0,33.4
	c-0.7,6-5.2,10.7-10.9,11.4c-10.4,1.2-20.9,1.2-31.2,0C6.2,56.4,1.6,51.7,1,45.7c-1.2-11.1-1.2-22.3,0-33.4
	C1.6,6.3,6.2,1.6,11.9,0.9z M42.4,10.1c-0.8,0-1.6,0.3-2.1,0.9c-0.6,0.6-0.9,1.4-0.9,2.2c0,0.8,0.3,1.6,0.9,2.2
	c0.6,0.6,1.3,0.9,2.1,0.9c0.8,0,1.6-0.3,2.1-0.9c0.6-0.6,0.9-1.4,0.9-2.2c0-0.8-0.3-1.6-0.9-2.2C44,10.4,43.2,10.1,42.4,10.1z
	 M13.3,29c0-4,1.5-7.8,4.2-10.6c2.7-2.8,6.3-4.4,10-4.4s7.4,1.6,10,4.4c2.7,2.8,4.2,6.6,4.2,10.6c0,4-1.5,7.8-4.2,10.6
	c-2.7,2.8-6.3,4.4-10,4.4s-7.4-1.6-10-4.4C14.8,36.8,13.3,33,13.3,29z"/>
</svg>
