<?xml version="1.0" encoding="utf-8"?>
<!-- Generator: Adobe Illustrator 28.4.1, SVG Export Plug-In . SVG Version: 6.00 Build 0)  -->
<svg version="1.1" id="Слой_1" xmlns="http://www.w3.org/2000/svg" xmlns:xlink="http://www.w3.org/1999/xlink" x="0px" y="0px"
	 viewBox="0 0 59 62" style="enable-background:new 0 0 59 62;" xml:space="preserve">
<style type="text/css">
	.st0{fill:#FFEA7C;}
</style>
<path class="st0" d="M59,13c-2.2,1-4.5,1.7-6.9,2c2.5-1.6,4.4-4.1,5.3-7.1c-2.3,1.5-4.9,2.5-7.7,3.1c-2.2-2.5-5.4-4-8.9-4
	c-6.6,0-12,5.7-12,12.7c0,1,0.1,2,0.3,2.9c-10-0.5-19-5.6-24.9-13.3c-1,1.9-1.6,4.1-1.6,6.4c0,4.4,2.1,8.3,5.4,10.6
	c-2,0-3.9-0.6-5.5-1.5V25c0,6.2,4.2,11.3,9.7,12.5C10.3,38,8.4,38,6.6,37.7c0.8,2.5,2.3,4.7,4.3,6.3c2,1.6,4.5,2.5,7,2.5
	c-4.3,3.6-9.6,5.5-15,5.5c-1,0-1.9-0.1-2.9-0.2c5.4,3.6,11.7,5.7,18.6,5.7C40.8,57.5,53,38.1,53,21.3c0-0.6,0-1.1,0-1.7
	C55.3,17.9,57.4,15.6,59,13z"/>
</svg>
