<?xml version="1.0" encoding="utf-8"?>
<!-- Generator: Adobe Illustrator 28.4.1, SVG Export Plug-In . SVG Version: 6.00 Build 0)  -->
<svg version="1.1" id="Слой_1" xmlns="http://www.w3.org/2000/svg" xmlns:xlink="http://www.w3.org/1999/xlink" x="0px" y="0px"
	 viewBox="0 0 57 55" style="enable-background:new 0 0 57 55;" xml:space="preserve">
<style type="text/css">
	.st0{fill:#FFEA7C;}
</style>
<path class="st0" d="M55.7,12.4C57,17.3,57,27.5,57,27.5s0,10.2-1.3,15.1c-0.7,2.7-2.8,4.8-5.5,5.6c-4.9,1.3-21.7,1.3-21.7,1.3
	s-16.8,0-21.7-1.3c-2.7-0.7-4.8-2.9-5.5-5.6C0,37.7,0,27.5,0,27.5s0-10.2,1.3-15.1C2,9.7,4.1,7.5,6.8,6.8c4.9-1.3,21.7-1.3,21.7-1.3
	s16.8,0,21.7,1.3C52.9,7.5,55,9.7,55.7,12.4z M22.8,37.1l17.1-9.6l-17.1-9.6V37.1z"/>
</svg>
